<?xml version="1.0" encoding="UTF-8" standalone="no"?>
<svg
   xmlns:dc="http://purl.org/dc/elements/1.1/"
   xmlns:cc="http://creativecommons.org/ns#"
   xmlns:rdf="http://www.w3.org/1999/02/22-rdf-syntax-ns#"
   xmlns:svg="http://www.w3.org/2000/svg"
   xmlns="http://www.w3.org/2000/svg"
   xmlns:sodipodi="http://sodipodi.sourceforge.net/DTD/sodipodi-0.dtd"
   xmlns:inkscape="http://www.inkscape.org/namespaces/inkscape"
   enable-background="new 0 0 48 48"
   height="48px"
   version="1.1"
   viewBox="0 0 48 48"
   width="48px"
   xml:space="preserve"
   id="svg2"
   inkscape:version="0.48.4 r9939"
   sodipodi:docname="database.svg"><metadata
     id="metadata27"><rdf:RDF><cc:Work
         rdf:about=""><dc:format>image/svg+xml</dc:format><dc:type
           rdf:resource="http://purl.org/dc/dcmitype/StillImage" /></cc:Work></rdf:RDF></metadata><defs
     id="defs25" /><sodipodi:namedview
     pagecolor="#ffffff"
     bordercolor="#666666"
     borderopacity="1"
     objecttolerance="10"
     gridtolerance="10"
     guidetolerance="10"
     inkscape:pageopacity="0"
     inkscape:pageshadow="2"
     inkscape:window-width="640"
     inkscape:window-height="483"
     id="namedview23"
     showgrid="false"
     inkscape:zoom="4.9166667"
     inkscape:cx="24"
     inkscape:cy="24"
     inkscape:window-x="0"
     inkscape:window-y="0"
     inkscape:window-maximized="0"
     inkscape:current-layer="svg2" /><g
     id="Expanded"
     style="fill:#ffffff"><g
       id="g5"
       style="fill:#ffffff"><g
         id="g7"
         style="fill:#ffffff"><path
           d="M24,20c-11.215,0-20-3.953-20-9s8.785-9,20-9s20,3.953,20,9S35.215,20,24,20z M24,4C15.486,4,6,6.875,6,11s9.486,7,18,7     s18-2.875,18-7S32.514,4,24,4z"
           id="path9"
           style="fill:#ffffff" /></g><g
         id="g11"
         style="fill:#ffffff"><path
           d="M24,28c-11.215,0-20-3.953-20-9v-8c0-0.553,0.447-1,1-1s1,0.447,1,1v8c0,4.125,9.486,7,18,7s18-2.875,18-7v-8     c0-0.553,0.447-1,1-1s1,0.447,1,1v8C44,24.047,35.215,28,24,28z"
           id="path13"
           style="fill:#ffffff" /></g><g
         id="g15"
         style="fill:#ffffff"><path
           d="M24,37c-11.215,0-20-3.953-20-9v-9c0-0.553,0.447-1,1-1s1,0.447,1,1v9c0,4.125,9.486,7,18,7s18-2.875,18-7v-9     c0-0.553,0.447-1,1-1s1,0.447,1,1v9C44,33.047,35.215,37,24,37z"
           id="path17"
           style="fill:#ffffff" /></g><g
         id="g19"
         style="fill:#ffffff"><path
           d="M24,46c-11.215,0-20-3.953-20-9v-9c0-0.553,0.447-1,1-1s1,0.447,1,1v9c0,4.125,9.486,7,18,7s18-2.875,18-7v-9     c0-0.553,0.447-1,1-1s1,0.447,1,1v9C44,42.047,35.215,46,24,46z"
           id="path21"
           style="fill:#ffffff" /></g></g></g></svg>