<?xml version="1.0" encoding="UTF-8" standalone="no"?>
<svg
   xmlns:dc="http://purl.org/dc/elements/1.1/"
   xmlns:cc="http://creativecommons.org/ns#"
   xmlns:rdf="http://www.w3.org/1999/02/22-rdf-syntax-ns#"
   xmlns:svg="http://www.w3.org/2000/svg"
   xmlns="http://www.w3.org/2000/svg"
   xmlns:sodipodi="http://sodipodi.sourceforge.net/DTD/sodipodi-0.dtd"
   xmlns:inkscape="http://www.inkscape.org/namespaces/inkscape"
   enable-background="new 0 0 500 500"
   height="500px"
   id="Layer_1"
   version="1.1"
   viewBox="0 0 500 500"
   width="500px"
   xml:space="preserve"
   inkscape:version="0.48.4 r9939"
   sodipodi:docname="domestic-icon.svg"><metadata
     id="metadata15"><rdf:RDF><cc:Work
         rdf:about=""><dc:format>image/svg+xml</dc:format><dc:type
           rdf:resource="http://purl.org/dc/dcmitype/StillImage" /></cc:Work></rdf:RDF></metadata><defs
     id="defs13" /><sodipodi:namedview
     pagecolor="#ffffff"
     bordercolor="#666666"
     borderopacity="1"
     objecttolerance="10"
     gridtolerance="10"
     guidetolerance="10"
     inkscape:pageopacity="0"
     inkscape:pageshadow="2"
     inkscape:window-width="1920"
     inkscape:window-height="1017"
     id="namedview11"
     showgrid="false"
     inkscape:zoom="0.472"
     inkscape:cx="250"
     inkscape:cy="250"
     inkscape:window-x="-8"
     inkscape:window-y="-8"
     inkscape:window-maximized="1"
     inkscape:current-layer="Layer_1" /><g
     id="g3"
     transform="matrix(2.300749,0,0,2.300749,-325.83761,-324.53686)"
     style="fill:#ffffff"><g
       id="g5"
       style="fill:#ffffff"><path
         d="M 328.655,177 H 304 v -5.559 C 304,154.707 290.548,142 273.814,142 H 228.546 C 211.812,142 198,154.707 198,171.441 V 177 H 173.705 C 156.971,177 143,190.349 143,207.084 V 326.735 C 143,343.468 156.971,357 173.705,357 h 154.95 C 345.389,357 358,343.468 358,326.734 V 207.084 C 358,190.349 345.389,177 328.655,177 z M 217,171.441 C 217,165.308 222.413,160 228.546,160 h 45.268 c 6.133,0 11.186,5.308 11.186,11.441 V 177 h -68 v -5.559 z M 340,326.734 C 340,332.867 334.788,338 328.655,338 H 173.705 C 167.572,338 163,332.867 163,326.734 V 207.084 C 163,200.951 167.572,196 173.705,196 h 24.541 l 0,0 h 105.867 l 0,0 h 24.541 c 6.133,0 11.345,4.951 11.345,11.084 v 119.65 z"
         id="path7"
         inkscape:connector-curvature="0"
         style="fill:#ffffff" /><polygon
         points="198,249 198,285 232,285 232,319 269,319 269,285 304,285 304,249 269,249 269,213 232,213 232,249 "
         id="polygon9"
         style="fill:#ffffff" /></g></g></svg>