<?xml version="1.0" encoding="UTF-8" standalone="no"?>
<svg
   xmlns:dc="http://purl.org/dc/elements/1.1/"
   xmlns:cc="http://creativecommons.org/ns#"
   xmlns:rdf="http://www.w3.org/1999/02/22-rdf-syntax-ns#"
   xmlns:svg="http://www.w3.org/2000/svg"
   xmlns="http://www.w3.org/2000/svg"
   xmlns:sodipodi="http://sodipodi.sourceforge.net/DTD/sodipodi-0.dtd"
   xmlns:inkscape="http://www.inkscape.org/namespaces/inkscape"
   enable-background="new 0 0 500 500"
   height="500px"
   id="Layer_1"
   version="1.1"
   viewBox="0 0 500 500"
   width="500px"
   xml:space="preserve"
   inkscape:version="0.48.4 r9939"
   sodipodi:docname="arrest-icon.svg"><metadata
     id="metadata17"><rdf:RDF><cc:Work
         rdf:about=""><dc:format>image/svg+xml</dc:format><dc:type
           rdf:resource="http://purl.org/dc/dcmitype/StillImage" /></cc:Work></rdf:RDF></metadata><defs
     id="defs15" /><sodipodi:namedview
     pagecolor="#ffffff"
     bordercolor="#666666"
     borderopacity="1"
     objecttolerance="10"
     gridtolerance="10"
     guidetolerance="10"
     inkscape:pageopacity="0"
     inkscape:pageshadow="2"
     inkscape:window-width="1920"
     inkscape:window-height="1017"
     id="namedview13"
     showgrid="false"
     inkscape:zoom="0.472"
     inkscape:cx="250"
     inkscape:cy="250"
     inkscape:window-x="-8"
     inkscape:window-y="-8"
     inkscape:window-maximized="1"
     inkscape:current-layer="Layer_1" /><g
     id="g3"
     transform="matrix(2.3424762,0,0,2.3507345,-343.95684,-333.21416)"><g
       id="g5"><path
         d="M 336,243.734 V 216.236 C 336,208.042 328.406,202 320.212,202 H 278.286 C 270.092,202 264,208.042 264,216.236 v 2.442 25.056 c -13,9.463 -21.522,23.783 -23.56,40.167 0.006,0.024 -0.181,0.049 -0.174,0.073 -0.313,2.408 -0.577,4.858 -0.577,7.346 0,32.888 26.666,59.548 59.554,59.548 32.888,0 60.027,-26.661 60.027,-59.548 0,-19.449 -9.27,-36.719 -23.27,-47.586 z m -36.751,-27.111 c 4.482,0 8.115,3.633 8.115,8.115 0,4.482 -3.633,8.115 -8.115,8.115 -4.482,0 -8.115,-3.633 -8.115,-8.115 0,-4.482 3.633,-8.115 8.115,-8.115 z m 23.194,97.892 c -6.195,6.195 -14.433,9.607 -23.194,9.607 -8.762,0 -16.999,-3.412 -23.195,-9.607 -4.178,-4.178 -7.084,-9.287 -8.538,-14.858 -0.337,-1.292 -0.592,-2.609 -0.772,-3.944 -0.018,-0.135 -0.033,-0.27 -0.05,-0.405 -0.062,-0.512 -0.111,-1.026 -0.149,-1.543 -0.012,-0.166 -0.027,-0.331 -0.036,-0.497 -0.038,-0.646 -0.063,-1.295 -0.063,-1.948 0,-0.617 0.021,-1.23 0.055,-1.84 0.009,-0.156 0.024,-0.311 0.034,-0.467 0.033,-0.471 0.073,-0.94 0.126,-1.407 0.017,-0.149 0.036,-0.297 0.055,-0.445 0.063,-0.498 0.136,-0.993 0.221,-1.485 0.018,-0.102 0.034,-0.203 0.053,-0.305 0.109,-0.593 0.23,-1.183 0.37,-1.768 1.395,-5.812 4.361,-11.146 8.694,-15.479 6.195,-6.195 14.433,-9.607 23.195,-9.607 8.762,0 16.999,3.412 23.194,9.607 6.195,6.195 9.607,14.433 9.607,23.194 10e-4,8.764 -3.411,17.002 -9.607,23.197 z"
         id="path7"
         inkscape:connector-curvature="0" /><path
         d="m 232.494,314.532 c -3.505,3.787 -7.881,6.715 -12.871,8.525 -8.237,2.988 -17.144,2.589 -25.08,-1.123 -7.937,-3.712 -13.953,-10.292 -16.94,-18.529 -2.988,-8.237 -2.589,-17.144 1.123,-25.08 3.712,-7.937 10.292,-13.953 18.529,-16.94 8.237,-2.988 17.144,-2.589 25.08,1.123 3.701,1.731 6.977,4.092 9.731,6.947 1.136,-3.505 2.858,-6.926 4.529,-10.201 3.99,-7.823 10.407,-14.917 16.407,-20.775 v -22.243 c 0,-0.91 -0.291,-1.81 -0.199,-2.696 l -25.09,-11.654 c -7.422,-3.471 -16.338,-0.268 -19.81,7.154 l -11.691,24.909 c -17.668,3.734 -33.453,15.427 -41.693,33.046 -13.932,29.791 -1.086,65.235 28.705,79.167 21.504,10.056 45.944,6.15 63.122,-8.002 -5.1,-5.749 -9.206,-12.227 -12.209,-19.325 -0.601,-1.419 -1.14,-2.857 -1.643,-4.303 z m 2.824,-94.013 c 4.482,0 8.115,3.633 8.115,8.115 0,4.482 -3.633,8.115 -8.115,8.115 -4.482,0 -8.115,-3.633 -8.115,-8.115 0,-4.482 3.633,-8.115 8.115,-8.115 z"
         id="path9"
         inkscape:connector-curvature="0" /><path
         d="m 247.924,205.046 c 11.249,0 20.4,-9.152 20.4,-20.4 0,-0.272 -0.03,-0.537 -0.041,-0.807 0.984,0.147 1.984,0.247 3.008,0.247 3.068,0 5.969,-0.7 8.582,-1.919 2.678,8.146 10.345,14.049 19.375,14.049 11.249,0 20.4,-9.152 20.4,-20.4 0,-11.249 -9.152,-20.4 -20.4,-20.4 -3.068,0 -5.969,0.7 -8.582,1.919 -2.678,-8.146 -10.345,-14.049 -19.375,-14.049 -11.249,0 -20.4,9.152 -20.4,20.4 0,0.272 0.03,0.537 0.041,0.807 -0.984,-0.147 -1.984,-0.247 -3.008,-0.247 -11.249,0 -20.4,9.152 -20.4,20.4 0,11.248 9.151,20.4 20.4,20.4 z m 51.325,-38.504 c 5.121,0 9.273,4.152 9.273,9.273 0,5.121 -4.152,9.273 -9.273,9.273 -5.121,0 -9.273,-4.152 -9.273,-9.273 0,-5.121 4.151,-9.273 9.273,-9.273 z m -27.957,-12.13 c 5.121,0 9.273,4.152 9.273,9.273 0,5.121 -4.152,9.273 -9.273,9.273 -5.121,0 -9.273,-4.152 -9.273,-9.273 0,-5.121 4.152,-9.273 9.273,-9.273 z m -23.368,20.961 c 5.121,0 9.273,4.152 9.273,9.273 0,5.121 -4.152,9.273 -9.273,9.273 -5.121,0 -9.273,-4.152 -9.273,-9.273 0,-5.122 4.152,-9.273 9.273,-9.273 z"
         id="path11"
         inkscape:connector-curvature="0" /></g></g></svg>