<?xml version="1.0" encoding="UTF-8" standalone="no"?>
<svg
   xmlns:dc="http://purl.org/dc/elements/1.1/"
   xmlns:cc="http://creativecommons.org/ns#"
   xmlns:rdf="http://www.w3.org/1999/02/22-rdf-syntax-ns#"
   xmlns:svg="http://www.w3.org/2000/svg"
   xmlns="http://www.w3.org/2000/svg"
   xmlns:sodipodi="http://sodipodi.sourceforge.net/DTD/sodipodi-0.dtd"
   xmlns:inkscape="http://www.inkscape.org/namespaces/inkscape"
   enable-background="new 0 0 500 500"
   height="500px"
   id="Layer_1"
   version="1.1"
   viewBox="0 0 500 500"
   width="500px"
   xml:space="preserve"
   inkscape:version="0.48.4 r9939"
   sodipodi:docname="crime-icon.svg"><metadata
     id="metadata11"><rdf:RDF><cc:Work
         rdf:about=""><dc:format>image/svg+xml</dc:format><dc:type
           rdf:resource="http://purl.org/dc/dcmitype/StillImage" /></cc:Work></rdf:RDF></metadata><defs
     id="defs9" /><sodipodi:namedview
     pagecolor="#ffffff"
     bordercolor="#666666"
     borderopacity="1"
     objecttolerance="10"
     gridtolerance="10"
     guidetolerance="10"
     inkscape:pageopacity="0"
     inkscape:pageshadow="2"
     inkscape:window-width="1920"
     inkscape:window-height="1017"
     id="namedview7"
     showgrid="false"
     inkscape:zoom="0.472"
     inkscape:cx="250"
     inkscape:cy="250"
     inkscape:window-x="-8"
     inkscape:window-y="-8"
     inkscape:window-maximized="1"
     inkscape:current-layer="Layer_1" /><g
     id="g3"
     transform="matrix(2.3380423,0,0,2.3354486,-333.45058,-333.47056)"><path
       d="M 355.295,269.514 325.36,179 h 27.68 c 1.122,0 1.999,-0.957 1.862,-2.071 C 353.87,168.502 346.688,162 337.982,162 h -18.289 l -0.187,-0.562 -0.179,0.562 h -17.501 c -9.415,0 -24.68,-17 -34.095,-17 H 231.89 c -9.415,0 -24.68,17 -34.095,17 H 179.15 l -0.187,-0.562 -0.179,0.562 H 162.04 c -8.706,0 -15.888,6.502 -16.92,14.929 -0.136,1.114 0.74,2.071 1.862,2.071 h 26.38 l -28.658,90.584 0.121,0.273 c 0.225,9.521 15.766,17.323 34.914,17.323 19.2,0 34.775,-7.667 34.918,-17.224 l 0.094,-0.471 L 184.817,179 H 240 v 160.947 c -29,1.034 -54.235,6.303 -59.104,13.938 -0.784,1.229 0.47,2.115 1.928,2.115 H 317.2 c 1.458,0 1.7,-0.886 0.916,-2.115 C 313.246,346.25 291,340.981 258,339.947 V 179 h 55.906 l -28.658,90.584 0.121,0.273 c 0.225,9.521 15.766,17.323 34.914,17.323 19.2,0 34.775,-7.902 34.918,-17.458 l 0.094,-0.208 z M 156.553,269 179.201,197.786 202.875,269 h -46.322 z m 140.543,0 22.647,-71.214 23.674,71.214 h -46.321 z"
       id="path5"
       inkscape:connector-curvature="0" /></g></svg>