<?xml version="1.0" encoding="UTF-8" standalone="no"?>
<svg
   xmlns:dc="http://purl.org/dc/elements/1.1/"
   xmlns:cc="http://creativecommons.org/ns#"
   xmlns:rdf="http://www.w3.org/1999/02/22-rdf-syntax-ns#"
   xmlns:svg="http://www.w3.org/2000/svg"
   xmlns="http://www.w3.org/2000/svg"
   xmlns:sodipodi="http://sodipodi.sourceforge.net/DTD/sodipodi-0.dtd"
   xmlns:inkscape="http://www.inkscape.org/namespaces/inkscape"
   enable-background="new 0 0 500 500"
   height="500px"
   id="Layer_1"
   version="1.1"
   viewBox="0 0 500 500"
   width="500px"
   xml:space="preserve"
   inkscape:version="0.48.4 r9939"
   sodipodi:docname="time-icon.svg"><metadata
     id="metadata29"><rdf:RDF><cc:Work
         rdf:about=""><dc:format>image/svg+xml</dc:format><dc:type
           rdf:resource="http://purl.org/dc/dcmitype/StillImage" /></cc:Work></rdf:RDF></metadata><defs
     id="defs27" /><sodipodi:namedview
     pagecolor="#ffffff"
     bordercolor="#666666"
     borderopacity="1"
     objecttolerance="10"
     gridtolerance="10"
     guidetolerance="10"
     inkscape:pageopacity="0"
     inkscape:pageshadow="2"
     inkscape:window-width="1920"
     inkscape:window-height="1017"
     id="namedview25"
     showgrid="false"
     inkscape:zoom="0.472"
     inkscape:cx="250"
     inkscape:cy="250"
     inkscape:window-x="-8"
     inkscape:window-y="-8"
     inkscape:window-maximized="1"
     inkscape:current-layer="Layer_1" /><g
     id="g3"
     style="fill:#ffffff"
     transform="matrix(2.2749342,0,0,2.2749342,-318.04777,-320.63814)"><g
       id="g5"
       style="fill:#ffffff"><path
         d="m 250.293,143.479 c -59.196,0 -107.184,47.988 -107.184,107.184 0,59.196 47.988,107.184 107.184,107.184 59.196,0 107.184,-47.988 107.184,-107.184 0,-59.196 -47.988,-107.184 -107.184,-107.184 z m 62.305,169.488 c -8.098,8.098 -17.523,14.454 -28.013,18.891 -10.851,4.589 -22.388,6.916 -34.291,6.916 -11.903,0 -23.441,-2.327 -34.291,-6.916 -10.49,-4.437 -19.915,-10.793 -28.013,-18.891 -8.098,-8.098 -14.454,-17.523 -18.891,-28.013 -4.589,-10.851 -6.917,-22.388 -6.917,-34.291 0,-11.903 2.327,-23.441 6.917,-34.291 4.437,-10.49 10.793,-19.915 18.891,-28.013 8.098,-8.098 17.523,-14.454 28.013,-18.891 10.85,-4.589 22.388,-6.916 34.291,-6.916 11.903,0 23.441,2.327 34.291,6.916 10.49,4.437 19.915,10.793 28.013,18.891 8.098,8.098 14.454,17.523 18.891,28.013 4.589,10.851 6.916,22.388 6.916,34.291 0,11.903 -2.327,23.441 -6.916,34.291 -4.437,10.49 -10.793,19.915 -18.891,28.013 z"
         id="path7"
         style="fill:#ffffff"
         inkscape:connector-curvature="0" /><path
         d="M 260.903,248.153 C 260.165,247.435 260,246.449 260,245.419 V 177.232 C 260,175.125 257.788,173 255.681,173 h -11.443 c -2.107,0 -4.238,2.125 -4.238,4.232 v 76.243 c 0,1.03 0.628,2.016 1.367,2.734 l 27.516,26.656 c 1.51,1.469 3.978,1.435 5.447,-0.075 l 8.004,-8.203 c 1.469,-1.51 1.574,-3.925 0.064,-5.394 l -21.495,-21.04 z"
         id="path9"
         style="fill:#ffffff"
         inkscape:connector-curvature="0" /><path
         d="m 295.474,213.449 c 1.49,1.49 3.905,1.49 5.395,0 l 7.967,-7.967 c 1.49,-1.49 1.49,-3.905 0,-5.394 l -7.967,-7.967 c -1.49,-1.49 -3.905,-1.49 -5.395,0 l -7.967,7.967 c -1.49,1.49 -1.49,3.905 0,5.394 l 7.967,7.967 z"
         id="path11"
         style="fill:#ffffff"
         inkscape:connector-curvature="0" /><path
         d="m 205.113,287.876 c -1.49,-1.49 -3.905,-1.49 -5.394,0 l -7.967,7.967 c -1.49,1.49 -1.49,3.905 0,5.394 l 7.967,7.967 c 1.49,1.49 3.905,1.49 5.394,0 l 7.967,-7.967 c 1.49,-1.49 1.49,-3.905 0,-5.394 l -7.967,-7.967 z"
         id="path13"
         style="fill:#ffffff"
         inkscape:connector-curvature="0" /><path
         d="m 205.113,192.121 c -1.49,-1.49 -3.905,-1.49 -5.394,0 l -7.967,7.967 c -1.49,1.49 -1.49,3.905 0,5.394 l 7.967,7.967 c 1.49,1.49 3.905,1.49 5.394,0 l 7.967,-7.967 c 1.49,-1.49 1.49,-3.905 0,-5.394 l -7.967,-7.967 z"
         id="path15"
         style="fill:#ffffff"
         inkscape:connector-curvature="0" /><path
         d="m 300.868,287.876 c -1.49,-1.49 -3.905,-1.49 -5.395,0 l -7.967,7.967 c -1.49,1.49 -1.49,3.905 0,5.394 l 7.967,7.967 c 1.49,1.49 3.905,1.49 5.395,0 l 7.967,-7.967 c 1.49,-1.49 1.49,-3.905 0,-5.394 l -7.967,-7.967 z"
         id="path17"
         style="fill:#ffffff"
         inkscape:connector-curvature="0" /><path
         d="M 260,312.814 C 260,310.707 258.292,309 256.186,309 h -11.371 c -2.107,0 -3.814,1.708 -3.814,3.814 v 11.371 c 0,2.107 1.708,3.814 3.814,3.814 h 11.371 c 2.107,0 3.814,-1.708 3.814,-3.814 v -11.371 z"
         id="path19"
         style="fill:#ffffff"
         inkscape:connector-curvature="0" /><path
         d="M 327,246.814 C 327,244.707 325.292,243 323.186,243 h -11.371 c -2.107,0 -3.814,1.708 -3.814,3.814 v 11.371 c 0,2.107 1.708,3.814 3.814,3.814 h 11.371 c 2.107,0 3.814,-1.708 3.814,-3.814 v -11.371 z"
         id="path21"
         style="fill:#ffffff"
         inkscape:connector-curvature="0" /><path
         d="M 192,244.814 C 192,242.707 190.292,241 188.186,241 h -11.371 c -2.107,0 -3.814,1.708 -3.814,3.814 v 11.371 c 0,2.107 1.708,3.814 3.814,3.814 h 11.371 c 2.107,0 3.814,-1.708 3.814,-3.814 v -11.371 z"
         id="path23"
         style="fill:#ffffff"
         inkscape:connector-curvature="0" /></g></g></svg>